<?xml version="1.0" encoding="utf-8"?>
<!-- Generator: Adobe Illustrator 27.3.0, SVG Export Plug-In . SVG Version: 6.00 Build 0)  -->
<svg version="1.1" id="Layer_1" xmlns="http://www.w3.org/2000/svg" xmlns:xlink="http://www.w3.org/1999/xlink" x="0px" y="0px"
	 viewBox="0 0 500 500" style="enable-background:new 0 0 500 500;" xml:space="preserve">
<style type="text/css">
	.st0{fill:#DFEAF7;}
	.st1{fill:#3D71F2;}
	.st2{fill:#FFB0B3;}
	.st3{fill:#002D53;}
	.st4{fill:#FF7A72;}
	.st5{fill:#FFB3AE;}
	.st6{fill:#6190E5;}
	.st7{fill:#F1F3F6;}
	.st8{fill:#D18C7E;}
	.st9{fill:#BC7F72;}
	.st10{fill:#FFFFFF;}
</style>
<g>
	<g>
		<path class="st0" d="M452.29,365.52c-6.23,12.85-16.78,24.36-30.54,34.21c-68.06,48.85-214.64,58.34-302.57,0
			c-14.51-9.59-27.41-21.05-38.08-34.47c-28.5-35.77-45.36-90.5-41.35-142.18c1.66-21.22,4.14-48.06,23.62-71.37
			c39.3-46.97,111.81-36.34,115.47-35.73c50.76,8.23,51.63,38.52,125.06,85.06c81.66,51.81,128.15,44.49,148.19,90.76
			C461.27,312.97,463.54,342.25,452.29,365.52z"/>
	</g>
	<g>
		<g>
			<g>
				<path class="st1" d="M190.69,382.11l17.03-76.44c4.27-19.17,17.11-35.31,34.83-43.79l50.26-24.05l51.57,21.45
					c20.73,8.62,35.88,26.92,40.49,48.89l15.5,73.94H190.69z"/>
			</g>
			<g>
				<path class="st2" d="M260.96,357.67c0,0,13.44-17.62,19.91-16.5c6.46,1.12,18.41,22.2,18.41,22.2h53.31l1.5-13.49
					c0,0,34.1,6.18,46.28,32.23H266.95L260.96,357.67z"/>
			</g>
			<g>
				<path class="st3" d="M354.08,351.52c-0.83,0-1.54-0.63-1.63-1.47l-4.63-45.51c-0.09-0.9,0.56-1.7,1.46-1.79
					c0.91-0.07,1.7,0.56,1.79,1.46l4.63,45.51c0.09,0.9-0.56,1.7-1.46,1.79C354.19,351.51,354.14,351.52,354.08,351.52z"/>
			</g>
		</g>
		<g>
			<g>
				<path class="st2" d="M268.92,230.15v35.41c0,0-2.53,21.92,11.52,19.96c14.05-1.97,28.96-40.78,28.96-40.78l-2.32-34.45
					L268.92,230.15z"/>
			</g>
			<g>
				<polygon class="st4" points="308.89,236.93 268.94,262.56 268.94,230.14 307.06,210.27 				"/>
			</g>
			<g>
				
					<ellipse transform="matrix(0.361 -0.9326 0.9326 0.361 -3.4102 379.1183)" class="st5" cx="274.95" cy="192.05" rx="52.56" ry="36.74"/>
			</g>
			<g>
				<path class="st3" d="M313.87,185.57c0,0-19.56-10.7-30.24-35.62c0,0-50.03,39.16-61.83,15.18
					c-11.8-23.98,17.43-42.91,20.8-26.61c0,0,26.95-43.66,71.28-14.62S313.87,185.57,313.87,185.57z"/>
			</g>
			<g>
				<path class="st5" d="M321.12,197.34c-2.85,7.94-8.92,13.03-13.56,11.36c-4.64-1.66-6.09-9.45-3.24-17.39
					c2.85-7.94,8.92-13.03,13.56-11.36C322.52,181.61,323.97,189.4,321.12,197.34z"/>
			</g>
		</g>
	</g>
	<g>
		<g>
			<g>
				<rect x="99.72" y="317.27" class="st6" width="47.79" height="64.85"/>
			</g>
			<g>
				<path class="st6" d="M81.58,349.92c0,5.65,4.61,10.22,10.25,10.22c3.19,0,6.02-1.45,7.89-3.72v13.75
					c-2.43,0.98-5.11,1.48-7.89,1.48c-12.02,0-21.76-9.71-21.76-21.73c0-12.02,9.75-21.76,21.76-21.76c2.78,0,5.46,0.5,7.89,1.48
					v13.75c-1.86-2.27-4.7-3.72-7.89-3.72C86.19,339.67,81.58,344.24,81.58,349.92z"/>
			</g>
		</g>
		<g>
			<path class="st7" d="M113.11,268.8c5.88-8.97,14.43-16.23,18.74-26.06c5.93-13.51,2.81-29.41,7.33-43.45
				c6.57-20.37,27.32-32.37,39.49-49.97c13.25-19.17,15.31-45.51,5.21-66.5c-4.61-9.58-11.86-18.25-21.54-22.66
				c-11.48-5.23-25.46-3.76-36.26,2.75c-10.8,6.51-18.43,17.65-21.83,29.79c-8.38,29.94,7.82,62.22,1.39,92.64
				c-3.82,18.09-15.35,33.82-19.24,51.89c-3.38,15.72-0.2,32.54,7.92,46.34c2.38,4.04,9,16.81,12.54,8.03
				c1.34-3.33,0.52-7.42,1.24-10.93C108.99,276.46,110.76,272.39,113.11,268.8z"/>
		</g>
	</g>
	<g>
		<g>
			<rect x="73.2" y="382.11" class="st8" width="373.71" height="17.61"/>
		</g>
		<g>
			<path class="st9" d="M421.75,399.72c-68.06,48.85-214.64,58.34-302.57,0H421.75z"/>
		</g>
	</g>
	<g>
		<g>
			<path class="st10" d="M274.21,373.65c1.14,4.66-1.85,8.46-6.64,8.46H156.84c-4.79,0-9.65-3.81-10.79-8.46l-20.21-82.38
				c-1.14-4.66,1.85-8.46,6.64-8.46h110.74c4.79,0,9.65,3.81,10.79,8.46L274.21,373.65z"/>
		</g>
		<g>
			<path class="st0" d="M210.91,333.62c1.23,6.74-3.23,12.19-9.96,12.19c-6.74,0-13.2-5.46-14.43-12.19
				c-1.23-6.73,3.23-12.19,9.96-12.19C203.22,321.42,209.68,326.88,210.91,333.62z"/>
		</g>
	</g>
</g>
</svg>
